# xmcd
#
# Track frame offsets: 
#        150
#        20842
#        46794
#        68415
#        88055
#        117298
#        140808
#        164815
#        187770
#        208480
#        240555
#
# Disc length: 3215 seconds
#
# Revision: 0
# Processed by: cddbd v1.5.2PL0 Copyright (c) Steve Scherf et al.
# Submitted via: ExactAudioCopy v1.0b3
#
DISCID=9e0c8d0b
DTITLE=Randy, Tuan Vu - Chiec Ao Ba ba
DYEAR=1900
DGENRE=
TTITLE0=Tuan Vu - Mai lo minh xa nhau
TTITLE1=Randy - Ta tu trong dem
TTITLE2=Tuan Vu - Em oi dung den nua
TTITLE3=Randy - Xin dung gian nhau (Chuyen chung minh 2)
TTITLE4=Tuan Vu - Chiec ao ba ba
TTITLE5=Randy - Phan gai thuyen quyen
TTITLE6=Tuan Vu - Dem tan ben Ngu
TTITLE7=Randy - Vung ngoai o
TTITLE8=Tuan Vu - Vung bien troi mau mat em
TTITLE9=Randy - Sau le bong
TTITLE10=inf - CDP
EXTD=
EXTT0=
EXTT1=
EXTT2=
EXTT3=
EXTT4=
EXTT5=
EXTT6=
EXTT7=
EXTT8=
EXTT9=
EXTT10=
PLAYORDER=
